<?xml version="1.0" encoding="utf-8"?>
<!-- Generator: Adobe Illustrator 16.0.1, SVG Export Plug-In . SVG Version: 6.00 Build 0)  -->
<!DOCTYPE svg PUBLIC "-//W3C//DTD SVG 1.1//EN" "http://www.w3.org/Graphics/SVG/1.1/DTD/svg11.dtd">
<svg version="1.1"
	 id="svg2" xmlns:sodipodi="http://sodipodi.sourceforge.net/DTD/sodipodi-0.dtd" xmlns:dc="http://purl.org/dc/elements/1.1/" xmlns:rdf="http://www.w3.org/1999/02/22-rdf-syntax-ns#" xmlns:inkscape="http://www.inkscape.org/namespaces/inkscape" xmlns:cc="http://creativecommons.org/ns#" xmlns:svg="http://www.w3.org/2000/svg" inkscape:version="0.48.2 r9819" sodipodi:docname="Nytt dokument 1"
	 xmlns="http://www.w3.org/2000/svg" xmlns:xlink="http://www.w3.org/1999/xlink" x="0px" y="0px" width="228.227px"
	 height="173.299px" viewBox="0 0 228.227 173.299" enable-background="new 0 0 228.227 173.299" xml:space="preserve">
<sodipodi:namedview  showgrid="false" inkscape:zoom="1.4142136" pagecolor="#ffffff" inkscape:cy="147.97869" fit-margin-left="0" borderopacity="1.0" inkscape:cx="7.264088" bordercolor="#666666" fit-margin-top="0" inkscape:current-layer="layer1" fit-margin-right="0" inkscape:document-units="px" inkscape:window-maximized="1" inkscape:window-y="0" inkscape:pageopacity="0.0" inkscape:window-width="1440" inkscape:window-height="802" inkscape:pageshadow="2" fit-margin-bottom="0" inkscape:window-x="0" id="base">
	</sodipodi:namedview>
<g id="layer1" transform="translate(-3.7839695,1.4142136)" inkscape:label="Layer 1" inkscape:groupmode="layer">
	<path fill="none" d=""/>
	<path id="path3784" inkscape:connector-curvature="0" d="M13.815,9.809L3.784,1.849l12.798-0.436
		C13.942,3.291,12.835,6.685,13.815,9.809z"/>
	<path id="path2985" inkscape:connector-curvature="0" sodipodi:nodetypes="cc" d="M20.181,753.683"/>
	<path fill="none" d=""/>
	<path id="path3769" inkscape:connector-curvature="0" stroke="#000000" d="M73.75,7.59l5.506,1.297L68.488-0.914l3.965,14.01
		L73.75,7.59z"/>
	<path id="path2987" inkscape:connector-curvature="0" sodipodi:nodetypes="ccccc" stroke="#000000" d="M68.488-0.914"/>
	<path fill="none" d=""/>
	<path id="path3784_1_" inkscape:connector-curvature="0" d="M134.241,64.668l-12.253,3.721l6.923-10.772
		C128.953,60.856,131.114,63.697,134.241,64.668z"/>
	<path id="path2989" inkscape:connector-curvature="0" sodipodi:nodetypes="cc" d="M117.963,813.617"/>
	<path id="path2991" inkscape:connector-curvature="0" sodipodi:nodetypes="cccczcccccc" fill="#627CC0" d="M207.692,169.095
		c0,0-0.475-65.5-0.475-94.696c-0.526-3.693-2.67-11.396,6.056-8.176c6.218-0.456,12.755,1.204,18.737-0.497
		c-15.05-9.753-43.729-79.192-49.65-63.825c-5.271,13.673-33.646,49.892-41.2,68.008c4.559,1.175,10.653,0.637,15.779,0.289
		c5.593-1.369,13.315,1.108,10.359,6.738c-0.103,13.889-0.163,94.668-0.163,94.668l0.316,0.28L207.692,169.095z"/>
</g>
</svg>
